<svg xmlns="http://www.w3.org/2000/svg" width="430" height="430" style="width:100%;height:100%;transform:translate3d(0,0,0);content-visibility:visible" viewBox="0 0 430 430"><defs><clipPath id="c"><path d="M0 0h430v430H0z"/></clipPath><clipPath id="f"><path d="M0 0h430v430H0z"/></clipPath><clipPath id="d"><path d="M0 0h430v430H0z"/></clipPath><path id="a" style="display:none"/><path id="b" style="display:none"/><mask id="g" mask-type="alpha"><use xmlns:ns1="http://www.w3.org/1999/xlink" ns1:href="#a"/></mask><mask id="e" mask-type="alpha"><use xmlns:ns2="http://www.w3.org/1999/xlink" ns2:href="#b"/></mask></defs><g clip-path="url(#c)"><g clip-path="url(#d)" style="display:none"><g mask="url(#e)" style="display:none"><path fill="none" class="secondary"/><path class="secondary"/><path fill="none" class="secondary"/><path class="secondary"/><path fill="none" class="secondary"/><path class="secondary"/></g><g fill="none" style="display:none"><path class="primary"/><path class="secondary"/></g></g><g clip-path="url(#f)" style="display:block"><g mask="url(#g)" style="display:none"><path fill="none" class="secondary"/><path class="secondary"/></g><g fill="none" stroke-linecap="round" stroke-linejoin="round" style="display:block"><path stroke="#121330" stroke-width="12" d="M45 255h340M65 55c-11.046 0-20 8.954-20 20v220c0 11.046 8.954 20 20 20h300c11.046 0 20-8.954 20-20V75c0-11.046-8.954-20-20-20z" class="primary"/><path stroke="#07A889" stroke-width="20" d="m215.029 285.179-.154-.094" class="secondary"/></g><path fill="none" stroke="#121330" stroke-linecap="round" stroke-linejoin="round" stroke-width="12" d="M-70 160H70m-100-60-5 60m70 0-5-60" class="primary" style="display:block" transform="translate(215 215)"/></g></g></svg>